<svg width="24" height="24" viewBox="0 0 24 24" fill="none" xmlns="http://www.w3.org/2000/svg">
<path d="M12.866 3L22.392 19.5C22.4798 19.652 22.526 19.8245 22.526 20C22.526 20.1755 22.4798 20.348 22.392 20.5C22.3042 20.652 22.178 20.7782 22.026 20.866C21.874 20.9538 21.7015 21 21.526 21H2.474C2.29847 21 2.12602 20.9538 1.97401 20.866C1.82199 20.7782 1.69576 20.652 1.60799 20.5C1.52023 20.348 1.47402 20.1755 1.47403 20C1.47403 19.8245 1.52023 19.652 1.608 19.5L11.134 3C11.2218 2.84799 11.348 2.72177 11.5 2.63401C11.652 2.54625 11.8245 2.50005 12 2.50005C12.1755 2.50005 12.348 2.54625 12.5 2.63401C12.652 2.72177 12.7782 2.84799 12.866 3ZM11 16V18H13V16H11ZM11 9V14H13V9H11Z" fill="#1C1D1F"/>
</svg>
