<svg width="24" height="24" viewBox="0 0 24 24" fill="none" xmlns="http://www.w3.org/2000/svg">
<path d="M20 22H6C5.20435 22 4.44129 21.6839 3.87868 21.1213C3.31607 20.5587 3 19.7956 3 19V5C3 4.20435 3.31607 3.44129 3.87868 2.87868C4.44129 2.31607 5.20435 2 6 2H20C20.2652 2 20.5196 2.10536 20.7071 2.29289C20.8946 2.48043 21 2.73478 21 3V21C21 21.2652 20.8946 21.5196 20.7071 21.7071C20.5196 21.8946 20.2652 22 20 22ZM19 20V18H6C5.73478 18 5.48043 18.1054 5.29289 18.2929C5.10536 18.4804 5 18.7348 5 19C5 19.2652 5.10536 19.5196 5.29289 19.7071C5.48043 19.8946 5.73478 20 6 20H19ZM12 10C12.5304 10 13.0391 9.78929 13.4142 9.41421C13.7893 9.03914 14 8.53043 14 8C14 7.46957 13.7893 6.96086 13.4142 6.58579C13.0391 6.21071 12.5304 6 12 6C11.4696 6 10.9609 6.21071 10.5858 6.58579C10.2107 6.96086 10 7.46957 10 8C10 8.53043 10.2107 9.03914 10.5858 9.41421C10.9609 9.78929 11.4696 10 12 10ZM9 14H15C15 13.2044 14.6839 12.4413 14.1213 11.8787C13.5587 11.3161 12.7956 11 12 11C11.2044 11 10.4413 11.3161 9.87868 11.8787C9.31607 12.4413 9 13.2044 9 14Z" fill="#1C1D1F"/>
</svg>
