<?xml version="1.0" encoding="UTF-8" standalone="no"?>
<!-- Created with Inkscape (http://www.inkscape.org/) -->

<svg
   width="24"
   height="24"
   viewBox="0 0 24 24"
   version="1.1"
   id="svg1"
   xml:space="preserve"
   inkscape:export-filename="bitmap.svg"
   inkscape:export-xdpi="96"
   inkscape:export-ydpi="96"
   xmlns:inkscape="http://www.inkscape.org/namespaces/inkscape"
   xmlns:sodipodi="http://sodipodi.sourceforge.net/DTD/sodipodi-0.dtd"
   xmlns="http://www.w3.org/2000/svg"
   xmlns:svg="http://www.w3.org/2000/svg"><sodipodi:namedview
     id="namedview1"
     pagecolor="#505050"
     bordercolor="#eeeeee"
     borderopacity="1"
     inkscape:showpageshadow="0"
     inkscape:pageopacity="0"
     inkscape:pagecheckerboard="0"
     inkscape:deskcolor="#505050"
     inkscape:document-units="px"
     showguides="true"
     showgrid="true"><inkscape:grid
       id="grid1"
       units="px"
       originx="0"
       originy="0"
       spacingx="1"
       spacingy="1"
       empcolor="#0099e5"
       empopacity="0.30196078"
       color="#0099e5"
       opacity="0.14901961"
       empspacing="1"
       dotted="false"
       gridanglex="30"
       gridanglez="30"
       visible="true" /></sodipodi:namedview><defs
     id="defs1" /><path
     d="M 3,2 2,3 3,4 v 7 h 7 l 3,3 v 7 h 7 l 1,1 1,-1 L 21,20 19,18 16,15 14,13 11,10 9,8 6,5 4,3 Z m 2.4140625,1 2,2 H 9 v 1.5859375 l 2,2 V 3 Z M 13,3 v 7.585938 L 13.414063,11 H 21 V 3 Z m 2,2 h 4 V 9 H 15 Z M 5,6 8,9 H 5 Z m -2,7 v 8 h 8 v -8 z m 12.414063,0 1.999999,2 H 19 v 1.585937 l 2,2 V 13 Z M 5,15 h 4 v 4 H 5 Z m 10,1 3,3 h -3 z"
     style="fill:#1c1d1f"
     id="path81" /></svg>
