<svg width="24" height="24" viewBox="0 0 24 24" fill="none" xmlns="http://www.w3.org/2000/svg">
<path d="M21 20.0003C21 20.2655 20.8946 20.5198 20.7071 20.7074C20.5196 20.8949 20.2652 21.0003 20 21.0003H4C3.73478 21.0003 3.48043 20.8949 3.29289 20.7074C3.10536 20.5198 3 20.2655 3 20.0003V9.49027C2.99989 9.33788 3.03462 9.18749 3.10152 9.05057C3.16841 8.91365 3.26572 8.79384 3.386 8.70027L11.386 2.47827C11.5615 2.34172 11.7776 2.26758 12 2.26758C12.2224 2.26758 12.4385 2.34172 12.614 2.47827L20.614 8.70027C20.7343 8.79384 20.8316 8.91365 20.8985 9.05057C20.9654 9.18749 21.0001 9.33788 21 9.49027V20.0003ZM7 15.0003V17.0003H17V15.0003H7Z" fill="#1C1D1F"/>
</svg>
