<svg width="24" height="24" viewBox="0 0 24 24" fill="none" xmlns="http://www.w3.org/2000/svg">
<path d="M10.3731 9.15083C10.3731 8.39005 9.87074 8.04254 8.80886 8.04254H7.37017V10.2497H8.80886C9.87074 10.2497 10.3731 9.90221 10.3731 9.15083Z" fill="#1C1D1F"/>
<path d="M13.6522 13.1264C13.9376 13.286 14.3144 13.3893 14.7483 13.3893C15.5704 13.3893 16.0386 13.0606 16.0386 12.3562V11.3043C16.0386 10.4965 15.5476 10.2148 14.7255 10.2148C14.3373 10.2148 13.9262 10.2523 13.6522 10.3463V13.1264Z" fill="#1C1D1F"/>
<path fill-rule="evenodd" clip-rule="evenodd" d="M2 3C1.44772 3 1 3.44772 1 4V19C1 19.5523 1.44772 20 2 20H22C22.5523 20 23 19.5523 23 19V4C23 3.44772 22.5523 3 22 3H2ZM11.9717 13.5464C12.0516 13.6497 11.9945 13.7155 11.8689 13.7155H10.5787C10.4987 13.7155 10.4302 13.6873 10.3846 13.6215L8.38639 11.2641H7.37017V13.5746C7.37017 13.6685 7.31308 13.7155 7.21032 13.7155H6.15985C6.05709 13.7155 6 13.6685 6 13.5746V7.14088C6 7.04696 6.05709 7 6.15985 7H8.80886C10.6814 7 11.7776 7.79834 11.7776 9.14144C11.7776 10.1746 11.0811 10.879 9.88216 11.142L11.9717 13.5464ZM12.3277 9.74515C12.3277 9.67001 12.3619 9.62305 12.4533 9.59487C13.127 9.37885 14.0176 9.25675 14.7597 9.25675C16.2669 9.25675 17.3859 9.89542 17.3859 11.3137V12.3468C17.3859 13.5772 16.3126 14.3474 14.8625 14.3474C14.4058 14.3474 13.9947 14.2628 13.6522 14.1407V15.8783C13.6522 15.9722 13.5951 16.0192 13.4809 16.0192H12.499C12.3848 16.0192 12.3277 15.9722 12.3277 15.8783V9.74515Z" fill="#1C1D1F"/>
</svg>
