<?xml version="1.0" encoding="UTF-8" standalone="no"?>
<!-- Created with Inkscape (http://www.inkscape.org/) -->

<svg
   width="24"
   height="24"
   viewBox="0 0 6.3499999 6.3499999"
   version="1.1"
   id="svg1"
   xml:space="preserve"
   xmlns:inkscape="http://www.inkscape.org/namespaces/inkscape"
   xmlns:sodipodi="http://sodipodi.sourceforge.net/DTD/sodipodi-0.dtd"
   xmlns="http://www.w3.org/2000/svg"
   xmlns:svg="http://www.w3.org/2000/svg"><sodipodi:namedview
     id="namedview1"
     pagecolor="#505050"
     bordercolor="#eeeeee"
     borderopacity="1"
     inkscape:showpageshadow="0"
     inkscape:pageopacity="0"
     inkscape:pagecheckerboard="0"
     inkscape:deskcolor="#505050"
     inkscape:document-units="mm"
     showgrid="true"
     showguides="false"><inkscape:grid
       id="grid1"
       units="mm"
       originx="0"
       originy="0"
       spacingx="0.99999998"
       spacingy="0.99999998"
       empcolor="#0099e5"
       empopacity="0.30196078"
       color="#0099e5"
       opacity="0.14901961"
       empspacing="12"
       dotted="false"
       gridanglex="30"
       gridanglez="30"
       visible="true" /></sodipodi:namedview><defs
     id="defs1" /><g
     inkscape:label="Layer 1"
     inkscape:groupmode="layer"
     id="layer1"><path
       id="path3"
       style="stroke-width:0.264583"
       d="m 4.4979246,3.1666897 c -0.7306197,0 -1.3229167,0.5922706 -1.3229167,1.3229166 0,0.7306197 0.592297,1.3229167 1.3229167,1.3229167 0.7306196,0 1.3229166,-0.592297 1.3229166,-1.3229167 0,-0.730646 -0.592297,-1.3229166 -1.3229166,-1.3229166 z M 4.3878538,3.5801011 c 0.064955,0 0.1190066,0.04682 0.1302246,0.1085205 l 0.00207,0.023771 v 0.9260417 h 0.6614584 c 0.064955,0 0.1190128,0.046823 0.1302246,0.1085205 l 0.00207,0.023771 c 0,0.064955 -0.046793,0.1190066 -0.1085205,0.1302246 l -0.023771,0.00207 h -0.79375 c -0.064929,0 -0.1190327,-0.04682 -0.1302246,-0.1085205 l -0.00207,-0.023771 V 3.7123928 c 0,-0.073052 0.059241,-0.1322917 0.1322917,-0.1322917 z M 0.79374209,1.8508797 c -0.14612673,0 -0.26458333,0 -0.26458333,0 L 0.5291905,1.3144 c 0,-0.2645833 0.0449315,-0.52916665 0.396875,-0.52916665 0.3519434,0 0.396875,0.26458335 0.396875,0.52916665 V 1.8508797 Z M 0.9260496,0.52809105 c 0,0 0.6531901,1.61e-6 0.6531901,0.79374995 v 4.4963664 c -0.00192,0.0073 0.1179402,0.00155 0.2640665,0.00155 H 3.7315631 C 3.2499695,5.744613 2.2259367,4.2761302 3.565165,3.2442043 4.7667413,2.3183417 5.8105754,3.4754631 5.8208412,3.7232448 V 1.385403 c 0,-0.85731428 -0.010335,-0.85731195 -0.010335,-0.85731195 z m 1.190625,0.66145835 0.9182902,0.00413 H 5.2916746 V 1.321841 1.4582668 H 5.1361285 2.1166746 V 1.321841 Z m 0,0.7978841 H 3.0349648 5.2916746 V 2.115591 2.2478827 l -0.1555461,0.00413 H 2.1166746 V 2.115591 Z" /></g></svg>
