<svg width="24" height="24" viewBox="0 0 24 24" fill="none" xmlns="http://www.w3.org/2000/svg">
<path d="M21.529 10.869L20.009 9.349C19.749 9.089 19.539 8.579 19.539 8.219V6.059C19.539 5.179 18.819 4.459 17.939 4.459H15.789C15.429 4.459 14.919 4.249 14.659 3.989L13.139 2.469C12.519 1.849 11.499 1.849 10.879 2.469L9.339 3.989C9.089 4.249 8.579 4.459 8.209 4.459H6.059C5.179 4.459 4.459 5.179 4.459 6.059V8.209C4.459 8.569 4.249 9.079 3.989 9.339L2.469 10.859C1.849 11.479 1.849 12.499 2.469 13.119L3.989 14.639C4.249 14.899 4.459 15.409 4.459 15.769V17.919C4.459 18.799 5.179 19.519 6.059 19.519H8.209C8.569 19.519 9.079 19.729 9.339 19.989L10.859 21.509C11.479 22.129 12.499 22.129 13.119 21.509L14.639 19.989C14.899 19.729 15.409 19.519 15.769 19.519H17.919C18.799 19.519 19.519 18.799 19.519 17.919V15.769C19.519 15.409 19.729 14.899 19.989 14.639L21.509 13.119C22.159 12.509 22.159 11.489 21.529 10.869ZM7.999 8.999C7.999 8.449 8.449 7.999 8.999 7.999C9.549 7.999 9.999 8.449 9.999 8.999C9.999 9.549 9.559 9.999 8.999 9.999C8.449 9.999 7.999 9.549 7.999 8.999ZM9.529 15.529C9.379 15.679 9.189 15.749 8.999 15.749C8.809 15.749 8.619 15.679 8.469 15.529C8.32952 15.3879 8.2513 15.1974 8.2513 14.999C8.2513 14.8006 8.32952 14.6101 8.469 14.469L14.469 8.469C14.759 8.179 15.239 8.179 15.529 8.469C15.819 8.759 15.819 9.239 15.529 9.529L9.529 15.529ZM14.999 15.999C14.439 15.999 13.989 15.549 13.989 14.999C13.989 14.449 14.439 13.999 14.989 13.999C15.539 13.999 15.989 14.449 15.989 14.999C15.989 15.549 15.549 15.999 14.999 15.999Z" fill="#1C1D1F"/>
</svg>
