<svg width="24" height="24" viewBox="0 0 24 24" fill="none" xmlns="http://www.w3.org/2000/svg">
<path fill-rule="evenodd" clip-rule="evenodd" d="M3 5.11757C6.11594 3.96854 12.3223 2 12.3223 2C12.3223 2 18.9902 4.10313 21.603 5.11757C21.603 13.3175 21.603 19.5695 12.3223 22.67C3 19.5552 3 13.2578 3 5.11757ZM15.7911 10.0224C15.3929 7.47768 14.2488 6.13402 12.3225 6.13402C10.3868 6.13402 9.25443 7.48943 8.88752 10.0531C8.12026 10.414 7.65173 10.7573 7.65173 10.7573L7.70337 14.2069C7.74949 17.4255 11.4173 18.3038 12.2022 18.4918C12.2963 18.5143 12.349 18.5269 12.349 18.5325C16.271 17.3628 16.9706 15.1336 16.9706 13.743V10.6531C16.9706 10.6531 16.5248 10.3492 15.7911 10.0224ZM14.6676 9.6013C14.2935 7.94655 13.5036 7.16752 12.3225 7.16752C11.1407 7.16752 10.3601 7.94878 10.0064 9.61089C10.6855 9.39271 11.4715 9.23096 12.3096 9.23096C13.17 9.23096 13.9759 9.3898 14.6676 9.6013ZM12.8134 14.3551C13.2681 14.1628 13.5885 13.7133 13.5885 13.1883C13.5885 12.4886 13.0211 11.9222 12.3225 11.9222C11.6228 11.9222 11.0564 12.4886 11.0564 13.1883C11.0564 13.7226 11.3882 14.1742 11.8553 14.3602L11.2952 16.2526C11.2445 16.421 11.3716 16.5916 11.5484 16.5916H13.1017C13.2774 16.5916 13.4035 16.4231 13.356 16.2547L12.8134 14.3551Z" fill="#1C1D1F"/>
</svg>
