<svg width="24" height="24" viewBox="0 0 24 24" fill="none" xmlns="http://www.w3.org/2000/svg">
<path fill-rule="evenodd" clip-rule="evenodd" d="M2 7L4.18 7.00001C4.3902 7.57916 4.77363 8.07955 5.27817 8.43316C5.7827 8.78678 6.38388 8.97648 7 8.97648C7.61612 8.97648 8.2173 8.78678 8.72184 8.43316C9.22637 8.07955 9.6098 7.57916 9.82 7.00001H22V5.00001H9.82C9.6098 4.42085 9.22637 3.92047 8.72184 3.56685C8.2173 3.21323 7.61612 3.02353 7 3.02353C6.38388 3.02353 5.7827 3.21323 5.27817 3.56685C4.77363 3.92047 4.3902 4.42085 4.18 5.00001H3L2 5V6.00001V6.5V7ZM17.2729 9.55295C17.7778 9.19489 18.3811 9.00175 19 9.00001C19.5504 8.99847 20.0905 9.14834 20.5614 9.43324C21.0323 9.71813 21.4157 10.1271 21.6697 10.6153C21.9238 11.1035 22.0386 11.6522 22.0017 12.2013C21.9647 12.7504 21.7775 13.2788 21.4603 13.7286C21.1432 14.1784 20.7085 14.5323 20.2037 14.7516C19.6989 14.9709 19.1435 15.0471 18.5984 14.9718C18.0532 14.8966 17.5392 14.6729 17.1126 14.3251C16.6861 13.9773 16.3635 13.5189 16.18 13H3L2 13V12V11L3 11H16.18C16.3863 10.4165 16.7681 9.91101 17.2729 9.55295ZM13.82 17L22 17V17.5L22 18L22 19L21 19H13.82C13.6098 19.5792 13.2264 20.0796 12.7218 20.4332C12.2173 20.7868 11.6161 20.9765 11 20.9765C10.3839 20.9765 9.7827 20.7868 9.27817 20.4332C8.77363 20.0796 8.39021 19.5792 8.18 19L2 19V18.5V18V17L3 17H8.18C8.39021 16.4209 8.77363 15.9205 9.27817 15.5669C9.7827 15.2132 10.3839 15.0235 11 15.0235C11.6161 15.0235 12.2173 15.2132 12.7218 15.5669C13.2264 15.9205 13.6098 16.4209 13.82 17Z" fill="#1C1D1F"/>
</svg>
