<svg width="64" height="64" viewBox="0 0 64 64" fill="none" xmlns="http://www.w3.org/2000/svg">
        <path d="M50.7416 7.904C50.4838 7.904 50.2259 7.84 50.0003 7.712C43.8125 4.544 38.4627 3.2 32.0493 3.2C25.6681 3.2 19.6092 4.704 14.0982 7.712C13.3248 8.128 12.3579 7.84 11.9067 7.072C11.7057 6.69775 11.6606 6.26013 11.7812 5.85322C11.9017 5.44631 12.1782 5.10261 12.5513 4.896C18.5457 1.664 25.1202 0 32.0493 0C38.9139 0 44.9083 1.504 51.4828 4.864C52.2885 5.28 52.5786 6.24 52.1596 7.008C52.0322 7.27476 51.8315 7.50037 51.5806 7.65889C51.3298 7.8174 51.0389 7.90236 50.7416 7.904ZM4.62317 24.704C4.3261 24.7068 4.03407 24.6277 3.77946 24.4757C3.52486 24.3237 3.31764 24.1047 3.18079 23.8428C3.04393 23.581 2.9828 23.2867 3.00416 22.9924C3.02553 22.6982 3.12856 22.4156 3.30182 22.176C6.4924 17.696 10.5531 14.176 15.3874 11.712C25.507 6.528 38.4627 6.496 48.6145 11.68C53.4487 14.144 57.5095 17.632 60.7001 22.08C60.8237 22.252 60.9118 22.4466 60.9593 22.6525C61.0068 22.8585 61.0128 23.0718 60.9768 23.28C60.9409 23.4883 60.8637 23.6874 60.7499 23.8659C60.636 24.0444 60.4876 24.1987 60.3133 24.32C59.5721 24.832 58.573 24.672 58.0574 23.936C55.235 19.9692 51.4862 16.741 47.132 14.528C37.8826 9.824 26.0549 9.824 16.8376 14.56C12.4546 16.8 8.7806 20 5.88007 24.032C5.62225 24.48 5.13882 24.704 4.62317 24.704ZM24.7657 63.328C24.5544 63.3306 24.3449 63.2892 24.1506 63.2065C23.9563 63.1238 23.7816 63.0017 23.6378 62.848C20.8339 60.064 19.3192 58.272 17.1599 54.4C14.9362 50.464 13.776 45.664 13.776 40.512C13.776 31.008 21.9619 23.264 32.0171 23.264C42.0722 23.264 50.2582 31.008 50.2582 40.512C50.2582 41.408 49.5491 42.112 48.6468 42.112C47.7444 42.112 47.0354 41.408 47.0354 40.512C47.0354 32.768 40.2997 26.464 32.0171 26.464C23.7344 26.464 16.9988 32.768 16.9988 40.512C16.9988 45.12 18.0301 49.376 19.996 52.832C22.0586 56.512 23.4766 58.08 25.9582 60.576C26.5705 61.216 26.5705 62.208 25.9582 62.848C25.6037 63.168 25.1847 63.328 24.7657 63.328ZM47.8733 57.408C44.0381 57.408 40.6542 56.448 37.8826 54.56C33.0806 51.328 30.2123 46.08 30.2123 40.512C30.2123 39.616 30.9213 38.912 31.8237 38.912C32.7261 38.912 33.4351 39.616 33.4351 40.512C33.4351 45.024 35.7555 49.28 39.6873 51.904C41.9755 53.44 44.6505 54.176 47.8733 54.176C48.6468 54.176 49.9359 54.08 51.225 53.856C52.0952 53.696 52.9331 54.272 53.0942 55.168C53.2554 56.032 52.6753 56.864 51.7729 57.024C49.9359 57.376 48.3245 57.408 47.8733 57.408ZM41.3954 64C41.2665 64 41.1054 63.968 40.9765 63.936C35.8522 62.528 32.5005 60.64 28.9876 57.216C26.7616 55.0335 24.9964 52.432 23.7956 49.5638C22.5947 46.6955 21.9823 43.6182 21.9941 40.512C21.9941 35.328 26.4416 31.104 31.9204 31.104C37.3992 31.104 41.8466 35.328 41.8466 40.512C41.8466 43.936 44.8438 46.72 48.5501 46.72C52.2563 46.72 55.2535 43.936 55.2535 40.512C55.2535 28.448 44.7794 18.656 31.8881 18.656C22.7354 18.656 14.3561 23.712 10.5854 31.552C9.32848 34.144 8.68392 37.184 8.68392 40.512C8.68392 43.008 8.90951 46.944 10.8432 52.064C11.1655 52.896 10.7465 53.824 9.90858 54.112C9.07065 54.432 8.13604 53.984 7.84598 53.184C6.29304 49.137 5.4958 44.8428 5.49333 40.512C5.49333 36.672 6.23458 33.184 7.68484 30.144C11.9712 21.216 21.4785 15.424 31.8881 15.424C46.5519 15.424 58.4763 26.656 58.4763 40.48C58.4763 45.664 54.0289 49.888 48.5501 49.888C43.0713 49.888 38.6238 45.664 38.6238 40.48C38.6238 37.056 35.6266 34.272 31.9204 34.272C28.2141 34.272 25.2169 37.056 25.2169 40.48C25.2169 45.952 27.344 51.072 31.2436 54.912C34.3053 57.92 37.238 59.584 41.7822 60.832C42.6523 61.056 43.1358 61.952 42.9102 62.784C42.749 63.52 42.0722 64 41.3954 64Z" fill="#1C1D1F" />
</svg>