<svg width="24" height="24" viewBox="0 0 24 24" fill="none" xmlns="http://www.w3.org/2000/svg">
<path fill-rule="evenodd" clip-rule="evenodd" d="M5.96827 21.9951C5.961 22.0227 6.41468 22 6.96697 22H14.1042C12.284 21.716 8.41364 16.1661 13.4753 12.2659C18.0167 8.76657 21.9611 13.1401 21.9999 14.0766V5.24025C21.9999 2 21.9611 2 21.9611 2H3.49988C3.49988 2 5.96827 2 5.96827 5V21.9951ZM19.9999 5C19.9999 4.72386 19.9999 4.5 19.9999 4.51642H11.4711L7.99988 4.5C7.99988 4.5 7.99988 4.75454 7.99988 5C7.99988 5.27614 7.99988 5.5 7.99988 5.51642H19.4119H19.9999C19.9999 5.5 19.9999 5.24546 19.9999 5ZM19.9999 8C19.9999 7.72386 19.9999 7.5 19.9999 7.51642H11.4711H7.99988C7.99988 7.59137 7.99988 7.75454 7.99988 8C7.99988 8.27614 7.99988 8.5 7.99988 8.51642H19.4119L19.9999 8.5C19.9999 8.5 19.9999 8.24546 19.9999 8Z" fill="#1C1D1F"/>
<path d="M2.99988 7C2.44759 7 1.99988 7 1.99988 7L2 4.97236C2 3.97236 2.16982 2.97236 3.5 2.97236C4.83018 2.97236 5 3.97236 5 4.97236V7H2.99988Z" fill="#1C1D1F"/>
<path fill-rule="evenodd" clip-rule="evenodd" d="M22 16.9724C22 19.7338 19.7614 21.9724 17 21.9724C14.2386 21.9724 12 19.7338 12 16.9724C12 14.2109 14.2386 11.9724 17 11.9724C19.7614 11.9724 22 14.2109 22 16.9724ZM17.0766 13.9456C17.0342 13.7124 16.8301 13.5355 16.5846 13.5355C16.3085 13.5355 16.0846 13.7594 16.0846 14.0355V18.0355L16.0927 18.1254C16.135 18.3586 16.3392 18.5355 16.5846 18.5355H19.5846L19.6745 18.5275C19.9078 18.4851 20.0846 18.281 20.0846 18.0355L20.0766 17.9456C20.0342 17.7124 19.8301 17.5355 19.5846 17.5355L17.084 17.5354L17.0846 14.0355L17.0766 13.9456Z" fill="#1C1D1F"/>
</svg>
