<svg width="24" height="24" viewBox="0 0 24 24" fill="none" xmlns="http://www.w3.org/2000/svg">
<g clip-path="url(#clip0_61733_213)">
<path d="M12 1L20.217 2.826C20.4391 2.87536 20.6377 2.99897 20.78 3.1764C20.9224 3.35384 21 3.57452 21 3.802V13.789C20.9999 14.7767 20.756 15.7492 20.2899 16.62C19.8238 17.4908 19.1499 18.2331 18.328 18.781L12 23L5.672 18.781C4.85027 18.2332 4.17646 17.4911 3.71035 16.6205C3.24424 15.7498 3.00024 14.7776 3 13.79V3.802C3.00004 3.57452 3.07764 3.35384 3.21999 3.1764C3.36234 2.99897 3.56094 2.87536 3.783 2.826L12 1ZM12 7C11.5597 7.00002 11.1318 7.1453 10.7825 7.41332C10.4333 7.68133 10.1822 8.0571 10.0682 8.48236C9.95429 8.90761 9.98384 9.35857 10.1523 9.76532C10.3208 10.1721 10.6187 10.5119 11 10.732V15H13L13.001 10.732C13.3823 10.5118 13.6803 10.1719 13.8488 9.76509C14.0172 9.35824 14.0467 8.90718 13.9326 8.48187C13.8186 8.05657 13.5673 7.6808 13.2179 7.41286C12.8684 7.14492 12.4403 6.9998 12 7Z" fill="#1C1D1F"/>
</g>
<defs>
<clipPath id="clip0_61733_213">
<rect width="24" height="24" fill="white"/>
</clipPath>
</defs>
</svg>
